<svg width="100" height="100" viewBox="0 0 100 100" fill="none" xmlns="http://www.w3.org/2000/svg">
<rect width="100" height="100" rx="32" fill="white"/>
<path d="M32.7796 58.2229L18.8483 44.2916C17.8491 43.2924 17.8491 41.6723 18.8483 40.6731L48.0421 11.4793C48.5219 10.9994 49.1727 10.7299 49.8513 10.7299L77.7139 10.7299C79.9935 10.7299 81.135 13.4859 79.5232 15.0978L36.3981 58.2229C35.3989 59.2221 33.7788 59.2221 32.7796 58.2229Z" fill="#1E3A8A"/>
<path d="M66.3194 42.233L80.2507 56.1643C81.2499 57.1636 81.2499 58.7836 80.2507 59.7828L51.0569 88.9766C50.577 89.4565 49.9262 89.7261 49.2476 89.7261H21.385C19.1055 89.7261 17.9639 86.97 19.5758 85.3581L62.7009 42.233C63.7001 41.2338 65.3202 41.2338 66.3194 42.233Z" fill="#F97316"/>
</svg>
